PathFileType  4	(X/Y/Z) C:\Users\wagnerel85475\Documents\Thesis\opencap-core\Data\3375ffbc-daeb-4a43-b4f7-ac9899cd4c71\MarkerData\PreAugmentation
DataRate	CameraRate	NumFrames	NumMarkers	Units	OrigDataRate	OrigDataStartFrame	OrigNumFrames
60.0	60.0	17	20	m	60.0	188	300
Frame#	Time	Neck			RShoulder			RElbow			RWrist			LShoulder			LElbow			LWrist			midHip			RHip			RKnee			RAnkle			LHip			LKnee			LAnkle			LBigToe			LSmallToe			LHeel			RBigToe			RSmallToe			RHeel			
		X1	Y1	Z1	X2	Y2	Z2	X3	Y3	Z3	X4	Y4	Z4	X5	Y5	Z5	X6	Y6	Z6	X7	Y7	Z7	X8	Y8	Z8	X9	Y9	Z9	X10	Y10	Z10	X11	Y11	Z11	X12	Y12	Z12	X13	Y13	Z13	X14	Y14	Z14	X15	Y15	Z15	X16	Y16	Z16	X17	Y17	Z17	X18	Y18	Z18	X19	Y19	Z19	X20	Y20	Z20	

188	3.1166667	0.7457500	1.3646000	-0.1679200	0.7680500	1.3668500	0.0170000	0.7185700	1.0612800	0.0819500	0.8174900	0.7655700	0.1442800	0.7491200	1.3614600	-0.3580800	0.7153500	1.0637700	-0.4274300	0.8255100	0.7863600	-0.4662700	0.8182000	0.8281400	-0.1785500	0.8196700	0.8278600	-0.0551100	0.7488600	0.3439100	-0.0318600	0.6865700	-0.1877900	0.0041100	0.8416600	0.8243800	-0.2865800	0.7472500	0.3512900	-0.2762100	0.6869600	-0.1817100	-0.3165100	0.9022300	-0.2281000	-0.3452300	0.8372800	-0.2274900	-0.3874900	0.6486300	-0.2274200	-0.3088200	0.8848000	-0.2419600	0.0502200	0.8283800	-0.2308700	0.0905400	0.6275000	-0.2308800	-0.0164300
189	3.1333333	0.7454800	1.3646000	-0.1679300	0.7682800	1.3668300	0.0170600	0.7186700	1.0642100	0.0817000	0.8178500	0.7653300	0.1439700	0.7493900	1.3613000	-0.3584600	0.7156100	1.0637500	-0.4274100	0.8262000	0.7864800	-0.4666100	0.8267800	0.8257300	-0.1746900	0.8199200	0.8275400	-0.0551400	0.7482300	0.3401600	-0.0314500	0.6866400	-0.1879400	0.0041700	0.8337800	0.8233200	-0.2826400	0.7474300	0.3513600	-0.2762200	0.6871200	-0.1782300	-0.3171800	0.9021700	-0.2249800	-0.3457300	0.8374100	-0.2272700	-0.3876500	0.6495300	-0.2232600	-0.3097000	0.8920800	-0.2392100	0.0460700	0.8280000	-0.2311900	0.0903400	0.6274300	-0.2309800	-0.0164000
190	3.1500000	0.7459100	1.3646500	-0.1679800	0.7681300	1.3669000	0.0169300	0.7188000	1.0645300	0.0817800	0.8175200	0.7655600	0.1441400	0.7492500	1.3614800	-0.3581100	0.7152500	1.0636700	-0.4274200	0.8253600	0.7862500	-0.4662700	0.8268700	0.8256900	-0.1746900	0.8197700	0.8276700	-0.0550900	0.7485700	0.3406900	-0.0314200	0.6866100	-0.1877700	0.0040900	0.8332000	0.8233300	-0.2827700	0.7471900	0.3516400	-0.2763000	0.6870500	-0.1781500	-0.3171600	0.9019900	-0.2249800	-0.3458600	0.8373000	-0.2273900	-0.3874900	0.6486000	-0.2232100	-0.3095200	0.8925300	-0.2389100	0.0459600	0.8365000	-0.2308800	0.0867600	0.6273800	-0.2309000	-0.0163700
191	3.1666667	0.7456100	1.3646800	-0.1679700	0.7683600	1.3668800	0.0170100	0.7186500	1.0642100	0.0816700	0.8177300	0.7653500	0.1439200	0.7496100	1.3613800	-0.3585300	0.7157100	1.0637800	-0.4274100	0.8265200	0.7829800	-0.4667600	0.8269800	0.8256700	-0.1747300	0.8199800	0.8275300	-0.0551500	0.7481900	0.3401100	-0.0315200	0.6867300	-0.1879400	0.0041400	0.8423500	0.8242600	-0.2864200	0.7466100	0.3541500	-0.2765400	0.6870000	-0.1816900	-0.3164900	0.9023900	-0.2280700	-0.3451100	0.8374300	-0.2273100	-0.3876700	0.6495200	-0.2273600	-0.3089800	0.8921900	-0.2390700	0.0459900	0.8359700	-0.2281600	0.0860000	0.6274600	-0.2309800	-0.0164000
192	3.1833333	0.7544100	1.3646000	-0.1720200	0.7681800	1.3669400	0.0169000	0.7188000	1.0646000	0.0818000	0.8174500	0.7655600	0.1441000	0.7493500	1.3615200	-0.3581900	0.7153500	1.0636600	-0.4273700	0.8256100	0.7793200	-0.4661900	0.8271200	0.8255700	-0.1746700	0.8198800	0.8246900	-0.0549000	0.7486000	0.3406300	-0.0314300	0.6866100	-0.1877700	0.0041000	0.8417300	0.8243200	-0.2864800	0.7472100	0.3513100	-0.2762800	0.6872700	-0.1852800	-0.3171200	0.9021700	-0.2280500	-0.3452100	0.8374200	-0.2274600	-0.3874700	0.6486700	-0.2274100	-0.3088900	0.8925000	-0.2389100	0.0460000	0.8364700	-0.2278000	0.0861800	0.6274600	-0.2308900	-0.0163900
193	3.2000000	0.7541200	1.3645100	-0.1720100	0.7684100	1.3668900	0.0169800	0.7186700	1.0642800	0.0816800	0.8177300	0.7653800	0.1439000	0.7497700	1.3613200	-0.3586000	0.7157900	1.0638000	-0.4273800	0.8173800	0.7783300	-0.4631400	0.8270900	0.8258100	-0.1746700	0.8200600	0.8275800	-0.0551100	0.7482000	0.3400000	-0.0315200	0.6866600	-0.1879600	0.0041600	0.8426300	0.8282200	-0.2862400	0.7473900	0.3513700	-0.2762000	0.6869600	-0.1781200	-0.3159000	0.9024700	-0.2280100	-0.3450900	0.8373800	-0.2271200	-0.3876600	0.6495800	-0.2243900	-0.3083500	0.8917400	-0.2355000	0.0467100	0.8358500	-0.2282200	0.0860400	0.6274500	-0.2310200	-0.0164100
194	3.2166667	0.7545300	1.3645300	-0.1720700	0.7682900	1.3669400	0.0168700	0.7188200	1.0645800	0.0817700	0.8251800	0.7666200	0.1396600	0.7581700	1.3612900	-0.3619100	0.7154000	1.0636500	-0.4273600	0.8165200	0.7781500	-0.4628500	0.8270400	0.8258800	-0.1746400	0.8198200	0.8277200	-0.0550500	0.7488000	0.3436800	-0.0318600	0.6866200	-0.1877800	0.0040800	0.8419900	0.8283200	-0.2863400	0.7491500	0.3530100	-0.2757300	0.6869700	-0.1781100	-0.3159300	0.9021000	-0.2280600	-0.3451700	0.8372000	-0.2272300	-0.3874900	0.6488300	-0.2243700	-0.3082700	0.8921400	-0.2353000	0.0466600	0.8365200	-0.2308400	0.0867500	0.6274500	-0.2309200	-0.0164000
195	3.2333333	0.7542300	1.3645000	-0.1720200	0.7684700	1.3668900	0.0169700	0.7186400	1.0642300	0.0816500	0.8254700	0.7693100	0.1392800	0.7498000	1.3613000	-0.3586100	0.7157300	1.0637500	-0.4274000	0.8090300	0.7773100	-0.4673000	0.8270700	0.8258500	-0.1746700	0.8199900	0.8275600	-0.0551000	0.7484400	0.3431900	-0.0319400	0.6866300	-0.1879800	0.0041600	0.8426700	0.8281800	-0.2862700	0.7466000	0.3542300	-0.2765000	0.6870200	-0.1816800	-0.3165100	0.9023300	-0.2280500	-0.3450300	0.8373000	-0.2272100	-0.3876200	0.6496100	-0.2244500	-0.3083900	0.8916800	-0.2354600	0.0467500	0.8358500	-0.2312800	0.0867000	0.6274300	-0.2310200	-0.0164100
196	3.2500000	0.7546000	1.3645200	-0.1721100	0.7773000	1.3667900	0.0201400	0.7187600	1.0645100	0.0817500	0.8252800	0.7695300	0.1394600	0.7582700	1.3612500	-0.3619700	0.7153600	1.0637000	-0.4273700	0.8080600	0.7770900	-0.4670400	0.8271000	0.8259500	-0.1746900	0.8197900	0.8278000	-0.0550700	0.7488900	0.3437100	-0.0318300	0.6865400	-0.1877900	0.0041100	0.8420900	0.8282700	-0.2864300	0.7479900	0.3558300	-0.2759900	0.6869900	-0.1780900	-0.3159200	0.9022200	-0.2246100	-0.3445600	0.8371900	-0.2272700	-0.3874800	0.6488700	-0.2243300	-0.3082800	0.8920100	-0.2353100	0.0467200	0.8363700	-0.2309300	0.0868400	0.6274300	-0.2309400	-0.0163900
197	3.2666667	0.7543200	1.3645000	-0.1721000	0.7684900	1.3669100	0.0169600	0.7185400	1.0641900	0.0816600	0.8256300	0.7693600	0.1392200	0.7587100	1.3611100	-0.3623700	0.7157100	1.0637600	-0.4274000	0.8008700	0.7728300	-0.4717800	0.8270900	0.8257200	-0.1747400	0.8199300	0.8275600	-0.0551500	0.7485000	0.3431900	-0.0319900	0.6865500	-0.1880200	0.0041700	0.8425500	0.8242300	-0.2864700	0.7474700	0.3512800	-0.2761700	0.6870200	-0.1817000	-0.3165000	0.9023900	-0.2280600	-0.3450300	0.8373500	-0.2272000	-0.3876000	0.6496400	-0.2244500	-0.3083300	0.8916500	-0.2354900	0.0467700	0.8358100	-0.2313300	0.0867300	0.6273800	-0.2310600	-0.0164000
198	3.2833333	0.7631000	1.3643800	-0.1761900	0.7764700	1.3668400	0.0125400	0.7092000	1.0640100	0.0785300	0.8253700	0.7695600	0.1394300	0.7583400	1.3612600	-0.3620900	0.7152800	1.0635800	-0.4273700	0.7922000	0.7716900	-0.4684100	0.8272000	0.8257500	-0.1746900	0.8198500	0.8277500	-0.0550600	0.7397600	0.3418300	-0.0352700	0.6866900	-0.1873500	0.0053100	0.8420600	0.8243100	-0.2865400	0.7473600	0.3516000	-0.2761800	0.6869900	-0.1817200	-0.3165300	0.9019400	-0.2250100	-0.3458000	0.8373700	-0.2272800	-0.3874200	0.6487700	-0.2272900	-0.3088900	0.8919700	-0.2353400	0.0467300	0.8363400	-0.2309400	0.0868500	0.6273500	-0.2309000	-0.0164100
199	3.3000000	0.7628700	1.3643600	-0.1761600	0.7766800	1.3668100	0.0126300	0.7090300	1.0637200	0.0784200	0.8256100	0.7694100	0.1392400	0.7675100	1.3609900	-0.3661300	0.7156300	1.0636800	-0.4274000	0.8012100	0.7694000	-0.4719800	0.8272000	0.8258600	-0.1747200	0.8200700	0.8276400	-0.0551200	0.7484200	0.3433000	-0.0320400	0.6868300	-0.1875600	0.0053600	0.8427800	0.8279900	-0.2863700	0.7472900	0.3582800	-0.2761800	0.6869600	-0.1816600	-0.3165000	0.9022000	-0.2249500	-0.3456500	0.8374100	-0.2271900	-0.3875700	0.6495600	-0.2244700	-0.3083300	0.8916300	-0.2355000	0.0467800	0.8357800	-0.2313200	0.0867300	0.6273500	-0.2310100	-0.0164300
200	3.3166667	0.7632900	1.3644000	-0.1762600	0.7856000	1.3667300	0.0157500	0.7092400	1.0640600	0.0784900	0.8254700	0.7696200	0.1394000	0.7672100	1.3581000	-0.3658900	0.7152400	1.0635800	-0.4273400	0.8004800	0.7691700	-0.4716200	0.8269400	0.8291000	-0.1748600	0.8198400	0.8278700	-0.0550700	0.7398200	0.3418000	-0.0353000	0.6863700	-0.1840700	0.0047000	0.8421800	0.8283200	-0.2864000	0.7481100	0.3558800	-0.2759300	0.6870100	-0.1817600	-0.3165000	0.9018900	-0.2250300	-0.3457900	0.8374000	-0.2272900	-0.3874000	0.6487600	-0.2272900	-0.3088700	0.8919700	-0.2353600	0.0467300	0.8363500	-0.2309500	0.0868400	0.6273400	-0.2308800	-0.0164200
201	3.3333333	0.7715300	1.3642100	-0.1802300	0.7849100	1.3667100	0.0082800	0.7185000	1.0642300	0.0816900	0.8256700	0.7665400	0.1393800	0.7678400	1.3579500	-0.3663100	0.7156500	1.0636700	-0.4274000	0.7924900	0.7680800	-0.4685300	0.8271300	0.8290600	-0.1749400	0.8202400	0.8306800	-0.0553400	0.7392600	0.3412100	-0.0354300	0.6863600	-0.1843300	0.0048300	0.8507900	0.8254100	-0.2901400	0.7474700	0.3513900	-0.2760900	0.6869700	-0.1817300	-0.3165000	0.9024000	-0.2280700	-0.3450000	0.8375100	-0.2273000	-0.3875500	0.6494000	-0.2273900	-0.3089500	0.8839100	-0.2384900	0.0509700	0.8278600	-0.2312300	0.0904100	0.6272800	-0.2309900	-0.0163900
202	3.3500000	0.7718200	1.3642400	-0.1803400	0.7847600	1.3667800	0.0081500	0.7186700	1.0645400	0.0817800	0.8253900	0.7667000	0.1396000	0.7760700	1.3579100	-0.3696200	0.7153600	1.0636500	-0.4273300	0.7918000	0.7678700	-0.4681300	0.8270200	0.8290600	-0.1749300	0.8199200	0.8278500	-0.0551200	0.7398000	0.3417600	-0.0352900	0.6862200	-0.1840900	0.0047600	0.8422800	0.8282200	-0.2864700	0.7472800	0.3515400	-0.2761400	0.6869500	-0.1817100	-0.3165000	0.9021400	-0.2280700	-0.3451500	0.8374900	-0.2273400	-0.3873900	0.6486300	-0.2272300	-0.3088700	0.8842600	-0.2383300	0.0509300	0.8284700	-0.2308200	0.0905200	0.6272500	-0.2308800	-0.0164100
203	3.3666667	0.7715800	1.3642300	-0.1802800	0.7849700	1.3667400	0.0082400	0.7185700	1.0642400	0.0816800	0.8257200	0.7694100	0.1391600	0.7678600	1.3610200	-0.3662500	0.7157400	1.0637400	-0.4273800	0.8007800	0.7690200	-0.4642700	0.8270700	0.8290600	-0.1749200	0.8202200	0.8307000	-0.0553500	0.7393100	0.3412000	-0.0354200	0.6862700	-0.1842600	0.0048200	0.8428400	0.8281200	-0.2863800	0.7482300	0.3555300	-0.2758300	0.6869900	-0.1817200	-0.3165100	0.9024200	-0.2280400	-0.3449800	0.8375500	-0.2273100	-0.3875200	0.6493800	-0.2273600	-0.3089500	0.8839200	-0.2385200	0.0510000	0.8278200	-0.2312200	0.0904400	0.6272400	-0.2309500	-0.0164200
204	3.3833333	0.7718700	1.3642300	-0.1803600	0.7848100	1.3667500	0.0081300	0.7187400	1.0645400	0.0817900	0.8254300	0.7666900	0.1395900	0.7761000	1.3609500	-0.3695600	0.7238100	1.0640300	-0.4232100	0.8002000	0.7689200	-0.4637900	0.8271400	0.8289800	-0.1749300	0.8201000	0.8308000	-0.0553200	0.7397300	0.3417700	-0.0353200	0.6865400	-0.1874800	0.0053600	0.8422300	0.8244900	-0.2866000	0.7473500	0.3516100	-0.2761200	0.6869900	-0.1817500	-0.3165200	0.9020500	-0.2281000	-0.3451300	0.8374400	-0.2273200	-0.3873900	0.6487400	-0.2272500	-0.3089000	0.8841700	-0.2383900	0.0509700	0.8284000	-0.2308500	0.0905700	0.6273000	-0.2335000	-0.0158400
